<svg xmlns="http://www.w3.org/2000/svg" viewBox="40 40 1699 270" role="img" aria-label="Urban Army">
  <!-- U -->
  <path d="M173.285 40H130.211V245.214C130.211 264.595 120.865 271.815 105.83 271.815C90.7945 271.815 81.4484 264.595 81.4484 245.214V40H40V246.354C40 288.156 65.6004 309.818 106.236 309.818C147.684 309.818 173.285 288.156 173.285 246.354V40Z" fill="#E0E0E0"/>
  <!-- R -->
  <path d="M339.281 307.918L302.447 186.689C321.054 176.049 330.927 156.287 330.927 128.166V109.164C330.927 65.4615 307.384 41.8999 264.095 41.8999H205.996V307.918H246.247V195.43H264.854L296.751 307.918H339.281ZM262.576 79.1424C281.942 79.1424 290.676 89.403 290.676 111.825V125.505C290.676 147.927 281.942 158.188 262.576 158.188H246.247V79.1424H262.576Z" fill="#E0E0E0"/>
  <!-- B -->
  <path d="M431.407 41.8999H371.992V307.918H434.619C480.386 307.918 505.276 284.356 505.276 240.653V231.532C505.276 196.57 494.035 176.809 467.539 169.208V168.448C490.02 161.228 499.254 143.747 499.254 114.105V109.164C499.254 65.4615 475.569 41.8999 431.407 41.8999ZM429.801 79.1424C448.27 79.1424 456.699 89.023 456.699 110.684V119.425C456.699 141.847 448.27 151.727 427.794 151.727H414.547V79.1424H429.801ZM431.006 188.97C453.487 188.97 462.721 199.61 462.721 223.172V237.993C462.721 260.414 453.487 270.675 433.013 270.675H414.547V188.97H431.006Z" fill="#E0E0E0"/>
  <!-- A -->
  <path d="M537.988 309.818H581.061V104.604C581.061 85.223 590.408 78.0025 605.443 78.0025C620.478 78.0025 629.825 85.223 629.825 104.604V309.818H671.273V103.464C671.273 61.6614 645.673 40 605.036 40C563.588 40 537.988 61.6614 537.988 103.464V309.818Z" fill="#E0E0E0"/>
  <rect x="573.53" y="158.211" width="65.6478" height="36.9974" fill="#E0E0E0"/>
  <!-- N -->
  <path d="M704.025 309.818H747.098V104.604C747.098 85.223 756.445 78.0025 771.48 78.0025C786.515 78.0025 795.862 85.223 795.862 104.604V309.818H837.31V103.464C837.31 61.6614 811.71 40 771.073 40C729.625 40 704.025 61.6614 704.025 103.464V309.818Z" fill="#E0E0E0"/>
  <!-- A -->
  <path d="M1024.31 309.818H1067.38V104.604C1067.38 85.223 1076.73 78.0025 1091.76 78.0025C1106.8 78.0025 1116.15 85.223 1116.15 104.604V309.818H1157.59V103.464C1157.59 61.6614 1131.99 40 1091.36 40C1049.91 40 1024.31 61.6614 1024.31 103.464V309.818Z" fill="#E0E0E0"/>
  <rect x="1059.85" y="158.211" width="65.6478" height="36.9974" fill="#E0E0E0"/>
  <!-- R -->
  <path d="M1323.49 307.918L1286.65 186.689C1305.26 176.049 1315.13 156.287 1315.13 128.166V109.164C1315.13 65.4615 1291.59 41.8999 1248.3 41.8999H1190.2V307.918H1230.45V195.43H1249.06L1280.96 307.918H1323.49ZM1246.78 79.1424C1266.15 79.1424 1274.88 89.403 1274.88 111.825V125.505C1274.88 147.927 1266.15 158.188 1246.78 158.188H1230.45V79.1424H1246.78Z" fill="#E0E0E0"/>
  <!-- M -->
  <path d="M1356.2 309.818H1399.27V104.604C1399.27 85.223 1408.62 78.0025 1423.65 78.0025C1438.69 78.0025 1448.04 85.223 1448.04 104.604V309.818H1489.48V103.464C1489.48 61.6614 1463.88 40 1423.25 40C1381.8 40 1356.2 61.6614 1356.2 103.464V309.818Z" fill="#E0E0E0"/>
  <path d="M1448.02 309.818H1491.09V104.604C1491.09 85.223 1500.44 78.0025 1515.47 78.0025C1530.51 78.0025 1539.85 85.223 1539.85 104.604V309.818H1581.3V103.464C1581.3 61.6614 1555.7 40 1515.06 40C1473.62 40 1448.02 61.6614 1448.02 103.464V309.818Z" fill="#E0E0E0"/>
  <!-- Y -->
  <path d="M1645.87 160.573L1656.17 187.448V307.918H1696.43V187.831L1706.71 160.573H1645.87Z" fill="#E0E0E0"/>
  <path d="M1614.01 41.8999V134.235C1614.01 176.038 1637.94 197.7 1675.91 197.7C1714.64 197.7 1738.56 176.038 1738.56 134.235V41.8999H1698.31V133.094C1698.31 152.476 1689.58 159.695 1675.53 159.695C1661.48 159.695 1652.74 152.476 1652.74 133.094V41.8999H1614.01Z" fill="#E0E0E0"/>
</svg>
