<svg width="7107" height="1197" viewBox="0 0 7107 1197" fill="none" xmlns="http://www.w3.org/2000/svg">
<mask id="mask0_4419_3079" style="mask-type:luminance" maskUnits="userSpaceOnUse" x="3940" y="0" width="592" height="1197">
<path d="M4531.27 0H3940.45V1196.03H4531.27V0Z" fill="white"/>
</mask>
<g mask="url(#mask0_4419_3079)">
<path d="M3940.45 1196.03H4131.39V286.373C4131.39 200.461 4172.82 168.454 4239.46 168.454C4306.11 168.454 4347.54 200.461 4347.54 286.373V1196.03H4531.27V281.32C4531.27 96.0185 4417.79 -0.000976562 4237.66 -0.000976562C4053.93 -0.000976562 3940.45 96.0185 3940.45 281.32V1196.03Z" fill="#111111"/>
</g>
<rect x="4098" y="524" width="291" height="164" fill="#111111"/>
<mask id="mask1_4419_3079" style="mask-type:luminance" maskUnits="userSpaceOnUse" x="4675" y="8" width="592" height="1180">
<path d="M5266.63 8.42285H4675.82V1187.61H5266.63V8.42285Z" fill="white"/>
</mask>
<g mask="url(#mask1_4419_3079)">
<path d="M5266.63 1187.61L5103.36 650.238C5185.84 603.071 5229.6 515.474 5229.6 390.817V306.589C5229.6 112.865 5125.24 8.42285 4933.35 8.42285H4675.82V1187.61H4854.24V688.983H4936.72L5078.11 1187.61H5266.63ZM4926.62 173.509C5012.47 173.509 5051.18 218.992 5051.18 318.381V379.025C5051.18 478.414 5012.47 523.897 4926.62 523.897H4854.24V173.509H4926.62Z" fill="#111111"/>
</g>
<mask id="mask2_4419_3079" style="mask-type:luminance" maskUnits="userSpaceOnUse" x="5411" y="0" width="592" height="1197">
<path d="M6002.45 0H5411.63V1196.03H6002.45V0Z" fill="white"/>
</mask>
<g mask="url(#mask2_4419_3079)">
<path d="M5411.63 1196.03H5602.57V286.373C5602.57 200.461 5644 168.454 5710.65 168.454C5777.29 168.454 5818.72 200.461 5818.72 286.373V1196.03H6002.45V281.32C6002.45 96.0185 5888.97 -0.000976562 5708.84 -0.000976562C5525.11 -0.000976562 5411.63 96.0185 5411.63 281.32V1196.03Z" fill="#111111"/>
</g>
<mask id="mask3_4419_3079" style="mask-type:luminance" maskUnits="userSpaceOnUse" x="5818" y="0" width="592" height="1197">
<path d="M6409.45 0H5818.63V1196.03H6409.45V0Z" fill="white"/>
</mask>
<g mask="url(#mask3_4419_3079)">
<path d="M5818.63 1196.03H6009.57V286.373C6009.57 200.461 6051 168.454 6117.65 168.454C6184.29 168.454 6225.72 200.461 6225.72 286.373V1196.03H6409.45V281.32C6409.45 96.0185 6295.97 -0.000976562 6115.84 -0.000976562C5932.11 -0.000976562 5818.63 96.0185 5818.63 281.32V1196.03Z" fill="#111111"/>
</g>
<mask id="mask4_4419_3079" style="mask-type:luminance" maskUnits="userSpaceOnUse" x="6554" y="8" width="553" height="1180">
<path d="M7106.56 8.42285H6554.45V1187.61H7106.56V8.42285Z" fill="white"/>
</mask>
<g mask="url(#mask4_4419_3079)">
<path d="M6695.66 534.469L6741.34 653.6V1187.61H6919.78V655.296L6965.36 534.469H6695.66Z" fill="#111111"/>
<path d="M6554.45 8.42285V417.721C6554.45 603.022 6660.51 699.046 6828.83 699.046C7000.52 699.046 7106.56 603.022 7106.56 417.721V8.42285H6928.14V412.665C6928.14 498.577 6889.43 530.58 6827.15 530.58C6764.87 530.58 6726.14 498.577 6726.14 412.665V8.42285H6554.45Z" fill="#111111"/>
</g>
<mask id="mask5_4419_3079" style="mask-type:luminance" maskUnits="userSpaceOnUse" x="0" y="0" width="591" height="1197">
<path d="M590.818 0H0V1196.03H590.818V0Z" fill="white"/>
</mask>
<g mask="url(#mask5_4419_3079)">
<path d="M590.818 0H399.883V909.66C399.883 995.572 358.453 1027.58 291.806 1027.58C225.159 1027.58 183.73 995.572 183.73 909.66V0H0V914.713C0 1100.01 113.48 1196.03 293.607 1196.03C477.337 1196.03 590.818 1100.01 590.818 914.713V0Z" fill="#111111"/>
</g>
<mask id="mask6_4419_3079" style="mask-type:luminance" maskUnits="userSpaceOnUse" x="735" y="8" width="592" height="1180">
<path d="M1326.63 8.42285H735.817V1187.61H1326.63V8.42285Z" fill="white"/>
</mask>
<g mask="url(#mask6_4419_3079)">
<path d="M1326.63 1187.61L1163.36 650.238C1245.84 603.071 1289.6 515.474 1289.6 390.817V306.589C1289.6 112.865 1185.24 8.42285 993.353 8.42285H735.817V1187.61H914.241V688.983H996.72L1138.11 1187.61H1326.63ZM986.62 173.509C1072.47 173.509 1111.18 218.992 1111.18 318.381V379.025C1111.18 478.414 1072.47 523.897 986.62 523.897H914.241V173.509H986.62Z" fill="#111111"/>
</g>
<mask id="mask7_4419_3079" style="mask-type:luminance" maskUnits="userSpaceOnUse" x="1471" y="8" width="592" height="1180">
<path d="M2062.45 8.42285H1471.63V1187.61H2062.45V8.42285Z" fill="white"/>
</mask>
<g mask="url(#mask7_4419_3079)">
<path d="M1735.01 8.42285H1471.63V1187.61H1749.25C1952.12 1187.61 2062.45 1083.17 2062.45 889.445V849.016C2062.45 694.037 2012.62 606.44 1895.17 572.749V569.38C1994.82 537.373 2035.76 459.884 2035.76 328.488V306.589C2035.76 112.865 1930.77 8.42285 1735.01 8.42285ZM1727.89 173.509C1809.76 173.509 1847.12 217.308 1847.12 313.327V352.072C1847.12 451.461 1809.76 495.259 1718.99 495.259H1660.27V173.509H1727.89ZM1733.23 660.346C1832.88 660.346 1873.82 707.513 1873.82 811.955V877.653C1873.82 977.042 1832.88 1022.52 1742.13 1022.52H1660.27V660.346H1733.23Z" fill="#111111"/>
</g>
<mask id="mask8_4419_3079" style="mask-type:luminance" maskUnits="userSpaceOnUse" x="2207" y="0" width="592" height="1197">
<path d="M2798.27 0H2207.45V1196.03H2798.27V0Z" fill="white"/>
</mask>
<g mask="url(#mask8_4419_3079)">
<path d="M2207.45 1196.03H2398.39V286.373C2398.39 200.461 2439.82 168.454 2506.46 168.454C2573.11 168.454 2614.54 200.461 2614.54 286.373V1196.03H2798.27V281.32C2798.27 96.0185 2684.79 -0.000976562 2504.66 -0.000976562C2320.93 -0.000976562 2207.45 96.0185 2207.45 281.32V1196.03Z" fill="#111111"/>
</g>
<rect x="2365" y="524" width="291" height="164" fill="#111111"/>
<mask id="mask9_4419_3079" style="mask-type:luminance" maskUnits="userSpaceOnUse" x="2943" y="0" width="592" height="1197">
<path d="M3534.27 0H2943.45V1196.03H3534.27V0Z" fill="white"/>
</mask>
<g mask="url(#mask9_4419_3079)">
<path d="M2943.45 1196.03H3134.39V286.373C3134.39 200.461 3175.82 168.454 3242.46 168.454C3309.11 168.454 3350.54 200.461 3350.54 286.373V1196.03H3534.27V281.32C3534.27 96.0185 3420.79 -0.000976562 3240.66 -0.000976562C3056.93 -0.000976562 2943.45 96.0185 2943.45 281.32V1196.03Z" fill="#111111"/>
</g>
</svg>
